<svg width="26" height="26" viewBox="0 0 26 26" fill="none" xmlns="http://www.w3.org/2000/svg">
<g id="ic:baseline-copyright">
<path id="Vector" d="M12.87 9.90199C14.2566 9.96699 14.6141 11.1478 14.6358 11.7003H16.575C16.4883 9.55533 14.9608 8.24449 12.8375 8.24449C10.4433 8.24449 8.66663 9.75033 8.66663 13.152C8.66663 15.2537 9.67413 17.7453 12.8266 17.7453C15.2316 17.7453 16.5208 15.9578 16.5533 14.5495H14.6141C14.5816 15.1887 14.1266 16.0445 12.8483 16.1095C11.4291 16.0662 10.8333 14.9612 10.8333 13.152C10.8333 10.0212 12.22 9.92366 12.87 9.90199ZM13 2.16699C7.01996 2.16699 2.16663 7.02033 2.16663 13.0003C2.16663 18.9803 7.01996 23.8337 13 23.8337C18.98 23.8337 23.8333 18.9803 23.8333 13.0003C23.8333 7.02033 18.98 2.16699 13 2.16699ZM13 21.667C8.22246 21.667 4.33329 17.7778 4.33329 13.0003C4.33329 8.22283 8.22246 4.33366 13 4.33366C17.7775 4.33366 21.6666 8.22283 21.6666 13.0003C21.6666 17.7778 17.7775 21.667 13 21.667Z" fill="#F8F8FF"/>
</g>
</svg>
